<svg xmlns="http://www.w3.org/2000/svg" x="0px" y="0px" width="100" height="100" viewBox="0 0 24 24">
<path d="M 21.125 2.0195312 C 20.768754 1.9809413 20.395219 2.0360863 20.037109 2.2070312 L 2.1582031 10.748047 C 1.3225782 11.147469 0.93288055 12.000406 1.0117188 12.783203 C 1.0905567 13.566 1.6423627 14.325634 2.5410156 14.550781 L 5.4492188 15.277344 C 6.4654019 15.53139 7.5410188 15.346734 8.4121094 14.765625 A 0.50005 0.50005 0 0 0 8.4199219 14.759766 L 12.542969 11.900391 L 10.273438 14.263672 C 9.2482591 15.28885 9.4389877 17.028059 10.662109 17.806641 A 0.50005 0.50005 0 0 0 10.695312 17.826172 L 18.039062 21.730469 C 19.432827 22.47186 21.16863 21.55006 21.333984 19.980469 L 22.992188 4.28125 A 0.50005 0.50005 0 0 0 22.992188 4.2773438 C 23.108032 3.0926145 22.193738 2.1353005 21.125 2.0195312 z M 21.046875 3 C 21.605633 3.0487238 22.060702 3.5389206 21.998047 4.1796875 L 20.339844 19.875 C 20.245194 20.773409 19.306049 21.272265 18.507812 20.847656 L 11.197266 16.960938 C 10.49668 16.512837 10.392358 15.558814 10.980469 14.970703 A 0.50005 0.50005 0 0 0 10.988281 14.964844 L 16.726562 8.984375 A 0.50005 0.50005 0 0 0 16.080078 8.2285156 L 7.8574219 13.933594 C 7.8574219 13.933594 7.8554688 13.933594 7.8554688 13.933594 C 7.218857 14.357604 6.4345721 14.494385 5.6914062 14.308594 L 2.7832031 13.580078 C 2.288856 13.456225 2.0489744 13.092297 2.0078125 12.683594 C 1.9666506 12.274891 2.1285156 11.869968 2.5878906 11.650391 L 20.46875 3.109375 C 20.66264 3.0168205 20.860622 2.9837587 21.046875 3 z" style="fill:white;fill-opacity:1;"></path>
</svg>